<svg baseProfile="full" height="560px" version="1.1" width="447px" xmlns="http://www.w3.org/2000/svg" xmlns:ev="http://www.w3.org/2001/xml-events" xmlns:xlink="http://www.w3.org/1999/xlink"><defs /><rect fill="darkseagreen" height="560px" width="447px" x="0" y="0" /><g transform="translate(25,-25)"><g transform="translate(0, 560) scale(1, -1)"><polygon fill="ivory" points="213,510 10,233 0,0 397,29" stroke="black" stroke-width="1" /><line stroke="black" stroke-dasharray="9,5" stroke-width="1" x1="10" x2="397" y1="233" y2="29" /><line stroke="red" stroke-width="1" x1="206" x2="135" y1="256" y2="87" /><line stroke="purple" stroke-width="2" x1="206" x2="252" y1="256" y2="236" /><line stroke="purple" stroke-width="2" x1="135" x2="61" y1="87" y2="117" /><line stroke="blue" stroke-width="1" x1="252" x2="61" y1="236" y2="117" /><circle cx="178" cy="190" fill="blue" r="2" stroke="black" stroke-width="1" /><g transform="scale(1, -1)"><text fill="black" font-size="20px" x="0" y="-240">Tack</text><text fill="black" font-size="20px" x="0" y="-220">(0, 0)</text><text fill="black" font-size="20px" x="10" y="-40">Throat</text><text fill="black" font-size="20px" x="10" y="-20">(10, 233)</text><text fill="black" font-size="20px" x="322" y="-29">Clew</text><text fill="black" font-size="20px" x="322" y="-9">(397, 29)</text><text fill="black" font-size="20px" x="213" y="-460">Peak</text><text fill="black" font-size="20px" x="213" y="-440">(213, 510)</text><text fill="black" font-size="20px" x="178" y="-178">COE: (178, 190)</text></g></g></g></svg>